<?xml version="1.0" standalone="no"?>
<!DOCTYPE svg PUBLIC "-//W3C//DTD SVG 20010904//EN"
 "http://www.w3.org/TR/2001/REC-SVG-20010904/DTD/svg10.dtd">
<svg version="1.0" xmlns="http://www.w3.org/2000/svg"
 width="128.000000pt" height="128.000000pt" viewBox="0 0 128.000000 128.000000"
 preserveAspectRatio="xMidYMid meet">
<metadata>
Created by potrace 1.14, written by Peter Selinger 2001-2017
</metadata>
<g transform="translate(0.000000,128.000000) scale(0.100000,-0.100000)"
fill="#000000" stroke="none">
<path d="M185 773 c-33 -8 -82 -51 -92 -80 -12 -36 -9 -103 6 -131 21 -40 86
-64 170 -64 112 -1 173 32 185 99 4 18 -1 19 -50 18 -29 -1 -60 -8 -68 -14
-24 -20 -95 -24 -122 -6 -28 18 -32 56 -8 79 20 21 103 21 130 1 11 -8 41 -14
71 -15 45 0 52 2 47 18 -24 73 -61 95 -169 97 -44 2 -89 0 -100 -2z"/>
<path d="M543 769 c-35 -10 -73 -52 -73 -80 0 -16 8 -19 54 -19 39 0 55 4 60
16 4 11 18 14 58 12 77 -4 71 -23 -14 -48 -137 -40 -159 -55 -163 -114 l-2
-36 174 0 174 0 -3 38 -3 37 -50 2 c-27 0 -65 1 -84 2 -39 1 -37 9 4 17 39 7
96 32 117 51 23 21 23 75 1 95 -39 35 -174 49 -250 27z"/>
<path d="M918 768 c-36 -9 -87 -56 -89 -81 -1 -7 -2 -25 -4 -42 -4 -47 13 -93
43 -113 55 -39 172 -47 236 -16 36 17 33 18 38 -4 6 -20 44 -27 50 -9 2 7 4
41 4 77 l-1 65 -93 3 c-92 3 -93 2 -90 -20 2 -16 10 -23 28 -25 52 -3 56 -4
35 -12 -30 -12 -111 -7 -129 8 -21 17 -20 55 1 76 12 13 28 15 67 11 142 -16
169 -17 177 -9 5 5 -4 24 -21 45 -44 53 -151 73 -252 46z"/>
</g>
</svg>
